<svg width="136" height="44" viewBox="0 0 136 44" fill="none" xmlns="http://www.w3.org/2000/svg">
<path d="M60.6098 31.8591C60.3142 31.6458 59.9531 31.5391 59.5285 31.5391C59.2249 31.5391 58.9392 31.6122 58.6714 31.7584C58.4035 31.9046 58.1853 32.0962 58.0186 32.3313C57.852 32.5664 57.7686 32.8193 57.7686 33.088H58.473C58.473 32.926 58.5265 32.7798 58.6357 32.6474C58.7428 32.515 58.8797 32.4084 59.0424 32.3293C59.2051 32.2483 59.3678 32.2069 59.5305 32.2049C59.7725 32.2049 59.9828 32.274 60.1594 32.4044C60.336 32.5348 60.4769 32.7047 60.582 32.9121C60.6892 33.1196 60.7566 33.3389 60.7864 33.572H59.0563V34.2378H60.7923C60.7665 34.4729 60.7011 34.7 60.5959 34.9174C60.4908 35.1347 60.3479 35.3125 60.1674 35.4527C59.9868 35.591 59.7745 35.6622 59.5305 35.6641C59.3479 35.6641 59.1773 35.6147 59.0166 35.5199C58.8559 35.4271 58.7249 35.3026 58.6257 35.1505C58.5265 34.9984 58.475 34.8344 58.475 34.6586H57.7706C57.7706 34.9667 57.846 35.2473 57.9988 35.4982C58.1516 35.7491 58.3599 35.9506 58.6238 36.1007C58.8896 36.2509 59.1912 36.326 59.5325 36.326C59.957 36.326 60.3181 36.2193 60.6138 36.0059C60.9094 35.7925 61.1356 35.51 61.2903 35.1584C61.4451 34.8067 61.5225 34.4274 61.5225 34.0165V33.8466C61.5225 33.4357 61.4451 33.0544 61.2903 32.7047C61.1356 32.355 60.9094 32.0725 60.6138 31.8591H60.6098Z" fill="#0082B8"/>
<path d="M66.6135 31.5984H65.689L64.0144 33.6174H63.5402V31.5984H62.824V36.241H63.5402V34.2832H64.1851L65.7148 36.241H66.6373L64.7307 33.8347L66.6135 31.5984Z" fill="#0082B8"/>
<path d="M70.4348 31.8374C70.1174 31.6379 69.7483 31.5391 69.3277 31.5391C68.9071 31.5391 68.5381 31.6379 68.2206 31.8374C67.9032 32.0369 67.6571 32.3175 67.4806 32.677C67.304 33.0386 67.2147 33.4594 67.2147 33.9434C67.2147 34.4274 67.304 34.8423 67.4806 35.1999C67.6571 35.5594 67.9051 35.838 68.2206 36.0375C68.5361 36.237 68.9071 36.3378 69.3277 36.3378C69.7483 36.3378 70.1174 36.237 70.4348 36.0375C70.7523 35.838 70.9983 35.5594 71.1749 35.1999C71.3514 34.8423 71.4407 34.4215 71.4407 33.9434C71.4407 33.4653 71.3514 33.0386 71.1749 32.677C70.9983 32.3155 70.7503 32.0369 70.4348 31.8374ZM70.5757 34.8087C70.4765 35.0754 70.3237 35.2888 70.1174 35.4527C69.911 35.6167 69.6471 35.6977 69.3277 35.6977C69.0083 35.6977 68.7444 35.6167 68.538 35.4527C68.3317 35.2888 68.1789 35.0754 68.0797 34.8087C67.9805 34.542 67.9309 34.2555 67.9309 33.9434C67.9309 33.6312 67.9805 33.3448 68.0797 33.0761C68.1789 32.8074 68.3317 32.5921 68.538 32.4261C68.7444 32.2602 69.0063 32.1792 69.3277 32.1792C69.6491 32.1792 69.911 32.2622 70.1174 32.4261C70.3237 32.5921 70.4765 32.8074 70.5757 33.0761C70.6749 33.3448 70.7245 33.6332 70.7245 33.9434C70.7245 34.2536 70.6749 34.542 70.5757 34.8087Z" fill="#0082B8"/>
<path d="M76.5358 31.5984H75.6132L73.9367 33.6174H73.4644V31.5984H72.7482V36.241H73.4644V34.2832H74.1073L75.637 36.241H76.5596L74.6529 33.8347L76.5358 31.5984Z" fill="#0082B8"/>
<path d="M79.2995 35.2986H79.2499L77.9623 31.5984H77.1845L78.9087 36.2647L78.7519 36.6993C78.6269 37.0451 78.4762 37.2545 78.3016 37.3236C78.127 37.3928 77.9087 37.3947 77.6468 37.3276L77.4643 37.9558C77.5 37.9736 77.5655 37.9933 77.6607 38.0111C77.7559 38.0309 77.8631 38.0408 77.9861 38.0408C78.6369 38.0408 79.0952 37.6891 79.3571 36.9897L81.361 31.5984H80.5832L79.2956 35.2986H79.2995Z" fill="#0082B8"/>
<path d="M85.6882 31.8315C85.3886 31.6359 85.0434 31.5391 84.6505 31.5391C84.3469 31.5391 84.1069 31.5885 83.9283 31.6892C83.7517 31.79 83.6148 31.9026 83.5216 32.0271C83.4263 32.1535 83.3529 32.2562 83.3013 32.3372H83.216V31.6003H82.5236V37.9835H83.2398V35.5298H83.2994C83.3529 35.6147 83.4263 35.7214 83.5236 35.8479C83.6208 35.9763 83.7597 36.0889 83.9402 36.1896C84.1208 36.2884 84.3608 36.3398 84.6584 36.3398C85.0473 36.3398 85.3906 36.241 85.6882 36.0454C85.9858 35.8498 86.2179 35.5713 86.3865 35.2117C86.5552 34.8522 86.6385 34.4274 86.6385 33.9355C86.6385 33.4436 86.5552 33.0247 86.3865 32.6652C86.2179 32.3056 85.9858 32.029 85.6862 31.8335L85.6882 31.8315ZM85.7715 34.8186C85.6703 35.0873 85.5175 35.3006 85.3171 35.4587C85.1148 35.6167 84.8648 35.6957 84.5652 35.6957C84.1347 35.6957 83.8033 35.5318 83.5732 35.2018C83.343 34.8719 83.2279 34.4452 83.2279 33.9177C83.2279 33.3902 83.341 32.9773 83.5672 32.6573C83.7934 32.3372 84.1267 32.1772 84.5632 32.1772C84.8668 32.1772 85.1187 32.2543 85.3211 32.4084C85.5215 32.5625 85.6723 32.7719 85.7735 33.0346C85.8727 33.2974 85.9243 33.5917 85.9243 33.9177C85.9243 34.2437 85.8727 34.5479 85.7715 34.8166V34.8186Z" fill="#0082B8"/>
<path d="M90.9479 31.8374C90.6304 31.6379 90.2614 31.5391 89.8408 31.5391C89.4202 31.5391 89.0511 31.6379 88.7337 31.8374C88.4162 32.0369 88.1702 32.3175 87.9936 32.677C87.8171 33.0386 87.7278 33.4594 87.7278 33.9434C87.7278 34.4274 87.8171 34.8423 87.9936 35.1999C88.1702 35.5594 88.4182 35.838 88.7337 36.0375C89.0491 36.237 89.4202 36.3378 89.8408 36.3378C90.2614 36.3378 90.6304 36.237 90.9479 36.0375C91.2633 35.838 91.5114 35.5594 91.6879 35.1999C91.8645 34.8423 91.9538 34.4215 91.9538 33.9434C91.9538 33.4653 91.8645 33.0386 91.6879 32.677C91.5114 32.3155 91.2633 32.0369 90.9479 31.8374ZM91.0888 34.8087C90.9895 35.0754 90.8368 35.2888 90.6304 35.4527C90.4241 35.6167 90.1602 35.6977 89.8408 35.6977C89.5214 35.6977 89.2575 35.6167 89.0511 35.4527C88.8448 35.2888 88.692 35.0754 88.5928 34.8087C88.4936 34.542 88.444 34.2555 88.444 33.9434C88.444 33.6312 88.4936 33.3448 88.5928 33.0761C88.692 32.8074 88.8448 32.5921 89.0511 32.4261C89.2575 32.2602 89.5214 32.1792 89.8408 32.1792C90.1602 32.1792 90.4241 32.2622 90.6304 32.4261C90.8368 32.5921 90.9895 32.8074 91.0888 33.0761C91.188 33.3448 91.2376 33.6332 91.2376 33.9434C91.2376 34.2536 91.188 34.542 91.0888 34.8087Z" fill="#0082B8"/>
<path d="M96.4239 31.8315C96.1243 31.6359 95.779 31.5391 95.3862 31.5391C95.0826 31.5391 94.8426 31.5885 94.664 31.6892C94.4874 31.79 94.3505 31.9026 94.2573 32.0271C94.164 32.1515 94.0886 32.2562 94.037 32.3372H93.9517V31.6003H93.2593V37.9835H93.9755V35.5298H94.037C94.0886 35.6147 94.164 35.7214 94.2612 35.8479C94.3585 35.9763 94.4973 36.0889 94.6779 36.1896C94.8584 36.2884 95.0985 36.3398 95.3961 36.3398C95.785 36.3398 96.1282 36.241 96.4258 36.0454C96.7234 35.8498 96.9556 35.5713 97.1242 35.2117C97.2929 34.8522 97.3762 34.4274 97.3762 33.9355C97.3762 33.4436 97.2929 33.0247 97.1242 32.6652C96.9556 32.3056 96.7234 32.029 96.4239 31.8335V31.8315ZM96.5072 34.8186C96.406 35.0873 96.2532 35.3006 96.0508 35.4587C95.8505 35.6167 95.5985 35.6957 95.2989 35.6957C94.8684 35.6957 94.537 35.5318 94.3069 35.2018C94.0767 34.8719 93.9616 34.4452 93.9616 33.9177C93.9616 33.3902 94.0747 32.9773 94.3009 32.6573C94.5271 32.3372 94.8604 32.1772 95.2969 32.1772C95.6005 32.1772 95.8524 32.2543 96.0548 32.4084C96.2552 32.5625 96.406 32.7719 96.5072 33.0346C96.6084 33.2974 96.658 33.5917 96.658 33.9177C96.658 34.2437 96.6064 34.5479 96.5052 34.8166L96.5072 34.8186Z" fill="#0082B8"/>
<path d="M98.0746 32.2641H99.6182V36.241H100.334V32.2641H101.864V31.5984H98.0746V32.2641Z" fill="#0082B8"/>
<path d="M73.5795 24.3006V14.4779C73.5795 12.7394 73.2541 11.2597 72.6014 10.0348C71.9486 8.81194 71.03 7.88737 69.8436 7.26308C68.6571 6.6388 67.2663 6.32665 65.6731 6.32665C64.0799 6.32665 62.6891 6.6388 61.5046 7.26308C60.3181 7.88737 59.3975 8.81194 58.7468 10.0348C58.094 11.2577 57.7686 12.7394 57.7686 14.4779V24.3006H61.0225V19.7448H70.2761V24.3006H73.5815H73.5795ZM61.0205 16.9849V14.1757C61.0205 12.5379 61.4272 11.3032 62.2407 10.4675C63.0541 9.63181 64.189 9.21496 65.6473 9.21496C67.1056 9.21496 68.2404 9.63181 69.0539 10.4675C69.8674 11.3032 70.2741 12.5399 70.2741 14.1757V16.9849H61.0205Z" fill="#0082B8"/>
<path d="M93.5629 21.592L91.428 19.567C90.1404 20.9677 88.5551 21.6691 86.6742 21.6691C85.454 21.6691 84.3608 21.4024 83.3946 20.8709C82.4284 20.3395 81.6744 19.6006 81.1328 18.6563C80.5892 17.712 80.3193 16.6392 80.3193 15.442C80.3193 14.2448 80.5892 13.1721 81.1328 12.2277C81.6744 11.2834 82.4284 10.5445 83.3946 10.0131C84.3608 9.48167 85.454 9.21496 86.6742 9.21496C88.5551 9.21496 90.1404 9.90642 91.428 11.2913L93.5629 9.29201C92.7315 8.3299 91.7157 7.59498 90.5114 7.08923C89.3071 6.58348 87.9778 6.33061 86.5195 6.33061C84.7239 6.33061 83.101 6.72375 81.6506 7.50806C80.2023 8.29236 79.0614 9.37696 78.2321 10.7618C77.4008 12.1467 76.9861 13.7074 76.9861 15.446C76.9861 17.1845 77.3968 18.7452 78.2182 20.1301C79.0396 21.515 80.1765 22.5976 81.6248 23.3839C83.0732 24.1682 84.6962 24.5613 86.4937 24.5613C87.952 24.5613 89.2852 24.3085 90.4975 23.8027C91.7098 23.2969 92.7296 22.562 93.5609 21.5999L93.5629 21.592Z" fill="#0082B8"/>
<path d="M101.34 10.0111C102.307 9.47969 103.4 9.21299 104.62 9.21299C106.501 9.21299 108.086 9.90444 109.374 11.2893L111.509 9.29004C110.677 8.32792 109.661 7.593 108.457 7.08725C107.253 6.5815 105.923 6.32863 104.465 6.32863C102.668 6.32863 101.047 6.72177 99.5964 7.50608C98.148 8.29039 97.0072 9.37499 96.1778 10.7599C95.3465 12.1448 94.9319 13.7055 94.9319 15.444C94.9319 17.1825 95.3426 18.7432 96.1659 20.1281C96.9873 21.513 98.1242 22.5956 99.5725 23.3819C101.023 24.1662 102.644 24.5593 104.441 24.5593C105.9 24.5593 107.233 24.3065 108.445 23.8007C109.657 23.295 110.677 22.5601 111.509 21.5979L109.374 19.573C108.086 20.9737 106.501 21.675 104.62 21.675C103.4 21.675 102.307 21.4083 101.34 20.8769C100.374 20.3454 99.6202 19.6066 99.0785 18.6622C98.5349 17.7179 98.2651 16.6451 98.2651 15.4479C98.2651 14.2507 98.5349 13.178 99.0785 12.2337C99.6202 11.2893 100.374 10.5505 101.34 10.019V10.0111Z" fill="#0082B8"/>
<path d="M135.129 6.57953H131.875V24.3005H135.129V6.57953Z" fill="#0082B8"/>
<path d="M126.141 12.7572C125.131 12.2672 123.966 12.0223 122.645 12.0223C120.951 12.0223 119.195 12.445 117.383 13.2886V6.57953H114.13V18.0478C114.13 20.1913 114.768 21.8251 116.048 22.9473C117.328 24.0694 119.187 24.6305 121.629 24.6305C124.072 24.6305 125.988 24.0694 127.337 22.9473C128.685 21.8251 129.359 20.2605 129.359 18.2513C129.359 16.9514 129.075 15.8332 128.508 14.8968C127.94 13.9603 127.151 13.2471 126.143 12.7572H126.141ZM124.895 20.9855C124.141 21.6276 123.093 21.9476 121.754 21.9476C120.415 21.9476 119.288 21.6019 118.526 20.9104C117.764 20.219 117.381 19.2312 117.381 17.949V16.1256C118.058 15.6356 118.78 15.2642 119.542 15.0113C120.306 14.7585 121.05 14.632 121.78 14.632C123.018 14.632 124.034 14.9619 124.831 15.6198C125.627 16.2777 126.026 17.1884 126.026 18.354C126.026 19.5196 125.649 20.3454 124.895 20.9875V20.9855Z" fill="#0082B8"/>
<path d="M44.3664 25.7645C41.3625 25.7645 39.8031 26.9143 38.4281 27.9297C37.1564 28.8681 36.0592 29.6781 33.7597 29.6781C31.4602 29.6781 30.361 28.8681 29.0892 27.9297C27.7143 26.9162 26.1548 25.7645 23.151 25.7645C20.1471 25.7645 18.5896 26.9143 17.2147 27.9297C15.9429 28.8681 14.8437 29.6781 12.5442 29.6781C10.2447 29.6781 9.14555 28.8681 7.87576 27.9297C6.50082 26.9162 4.94135 25.7645 1.9375 25.7645C1.35023 25.7645 0.87207 26.2386 0.87207 26.8234C0.87207 27.4081 1.35023 27.8843 1.9375 27.8843C4.23702 27.8843 5.33618 28.6943 6.60795 29.6327C7.7587 30.4841 9.04437 31.4265 11.1951 31.709C10.83 32.0528 10.4927 32.438 10.1951 32.8667C9.2884 34.1765 8.94516 35.759 9.23484 37.3236C9.52252 38.8903 10.4054 40.2495 11.7208 41.1523C12.82 41.907 14.1473 42.1915 15.4608 41.9524C16.7762 41.7134 17.915 40.9785 18.6749 39.884C19.3118 38.9614 19.5539 37.8472 19.3495 36.7448C19.1471 35.6444 18.5261 34.6862 17.5996 34.0481C17.1155 33.7182 16.4508 33.8387 16.1195 34.3188C15.7862 34.8008 15.9072 35.4626 16.3913 35.7945C16.8496 36.1086 17.1571 36.5808 17.2544 37.1261C17.3555 37.6713 17.2365 38.2225 16.921 38.6789C16.4865 39.3071 15.8318 39.7279 15.0779 39.8642C14.3239 40.0025 13.562 39.8405 12.9311 39.4059C12.0859 38.8231 11.5165 37.9479 11.332 36.9404C11.1455 35.9328 11.3657 34.9154 11.949 34.0698C13.5422 31.7742 16.7127 31.1953 19.0182 32.7817C22.022 34.8462 22.7799 38.9574 20.7066 41.9465C20.3733 42.4285 20.4943 43.0904 20.9784 43.4223C21.1629 43.5467 21.3732 43.6099 21.5816 43.6099C21.9208 43.6099 22.2522 43.4499 22.4585 43.1516C22.7264 42.7644 22.9565 42.3653 23.151 41.9564C23.3513 42.3673 23.5815 42.7664 23.8474 43.1516C24.0537 43.4479 24.385 43.6099 24.7243 43.6099C24.9326 43.6099 25.1429 43.5467 25.3275 43.4223C25.8116 43.0904 25.9326 42.4285 25.5993 41.9465C24.5973 40.4984 24.2204 38.748 24.5378 37.0174C24.8572 35.2868 25.8314 33.7814 27.2877 32.7817C28.4047 32.0132 29.7558 31.7248 31.0891 31.9678C32.4224 32.2108 33.5831 32.9576 34.3549 34.0698C35.5592 35.8103 35.1207 38.2047 33.3728 39.4059C32.0712 40.2989 30.2796 39.9729 29.3829 38.6769C28.7301 37.7365 28.9682 36.4405 29.9126 35.7925C30.3967 35.4606 30.5177 34.7988 30.1844 34.3168C29.8531 33.8367 29.1884 33.7162 28.7043 34.0461C26.7937 35.3599 26.3135 37.9775 27.6329 39.88C29.1964 42.1381 32.3173 42.7071 34.585 41.1484C37.2992 39.2834 37.9837 35.5673 36.1108 32.8647C35.8171 32.44 35.4798 32.0547 35.1128 31.707C37.2615 31.4225 38.5472 30.4782 39.6979 29.6307C40.9697 28.6923 42.0689 27.8823 44.3684 27.8823C44.9557 27.8823 45.4338 27.4062 45.4338 26.8214C45.4338 26.2366 44.9557 25.7625 44.3684 25.7625L44.3664 25.7645ZM26.0774 31.0353C24.7997 31.9145 23.7997 33.0919 23.151 34.4551C22.5161 33.1215 21.534 31.9342 20.2304 31.0353C19.5241 30.5513 18.7603 30.2095 17.9766 30.0041C18.1492 29.8796 18.3198 29.7571 18.4865 29.6327C19.7562 28.6943 20.8554 27.8843 23.1549 27.8843C25.4544 27.8843 26.5536 28.6943 27.8254 29.6327C27.99 29.7532 28.1567 29.8776 28.3293 30.0021C27.5357 30.2115 26.7778 30.5592 26.0794 31.0353H26.0774Z" fill="#0082B8"/>
<path d="M45.4318 21.6039C45.4318 22.1906 44.9537 22.6648 44.3664 22.6648C42.0669 22.6648 40.9677 23.4748 39.6959 24.4132C38.321 25.4286 36.7635 26.5804 33.7597 26.5804C30.7558 26.5804 29.1963 25.4306 27.8214 24.4132C26.5496 23.4748 25.4525 22.6648 23.151 22.6648C20.8495 22.6648 19.7523 23.4748 18.4825 24.4132C17.1075 25.4286 15.5481 26.5804 12.5442 26.5804C9.54038 26.5804 7.9829 25.4306 6.60795 24.4132C5.33618 23.4748 4.23702 22.6648 1.9375 22.6648C1.35023 22.6648 0.87207 22.1906 0.87207 21.6039C0.87207 21.0171 1.35023 20.545 1.9375 20.545C4.94135 20.545 6.50082 21.6948 7.87576 22.7102C9.14555 23.6506 10.2447 24.4586 12.5442 24.4586C14.8437 24.4586 15.9429 23.6506 17.2147 22.7102C18.5896 21.6967 20.1471 20.545 23.151 20.545C26.1548 20.545 27.7143 21.6948 29.0892 22.7102C30.361 23.6506 31.4582 24.4586 33.7597 24.4586C36.0612 24.4586 37.1564 23.6506 38.4281 22.7102C39.8031 21.6967 41.3625 20.545 44.3664 20.545C44.9537 20.545 45.4318 21.0191 45.4318 21.6039Z" fill="#0082B8"/>
<path d="M23.9406 5.32898C23.7819 5.01091 23.4565 4.81335 23.0994 4.81335C22.7422 4.81335 22.4169 5.01289 22.2561 5.32898C21.7601 6.30887 20.1451 9.6081 20.1451 10.8409C20.1451 12.4628 21.4705 13.7805 23.0994 13.7805C24.7283 13.7805 26.0536 12.4628 26.0536 10.8409C26.0536 9.6081 24.4366 6.30887 23.9406 5.32898ZM23.0994 11.9057C22.5101 11.9057 22.032 11.4276 22.032 10.8428C22.0339 10.4734 22.5061 9.25843 23.0994 7.94071C23.6946 9.25843 24.1648 10.4734 24.1668 10.8428C24.1668 11.4276 23.6866 11.9057 23.0994 11.9057Z" fill="#0082B8"/>
<path d="M44.3227 15.6514C43.2593 15.6554 42.3804 15.8055 41.6224 16.0426L37.0452 7.75105C36.4024 6.58546 35.337 5.75373 34.0454 5.40998C32.7538 5.06821 31.4145 5.25786 30.2717 5.95129C29.6269 6.34246 28.7837 6.0718 28.49 5.38035L27.6151 3.32969C26.8413 1.51808 25.131 0.390015 23.1529 0.390015C21.1748 0.390015 19.4626 1.51808 18.6888 3.32969L17.8139 5.38035C17.5182 6.0718 16.675 6.34048 16.0322 5.95129C14.8914 5.25984 13.5521 5.06821 12.2585 5.40998C10.9689 5.75373 9.90346 6.58546 9.25864 7.75105L4.68343 16.0426C3.92552 15.8075 3.04659 15.6554 1.98314 15.6514C1.42562 15.6495 0.927624 16.0624 0.878023 16.6175C0.82247 17.2457 1.32047 17.7712 1.93949 17.7712C4.239 17.7712 5.33816 18.5812 6.60994 19.5196C7.98489 20.5351 9.54236 21.6868 12.5462 21.6868C15.5501 21.6868 17.1095 20.5371 18.4845 19.5196C19.7543 18.5812 20.8534 17.7712 23.1529 17.7712C25.4525 17.7712 26.5516 18.5812 27.8234 19.5196C29.1983 20.5351 30.7578 21.6868 33.7616 21.6868C36.7655 21.6868 38.323 20.5371 39.6979 19.5196C40.9697 18.5812 42.0689 17.7712 44.3684 17.7712C44.9874 17.7712 45.4854 17.2457 45.4298 16.6175C45.3802 16.0643 44.8822 15.6495 44.3247 15.6514H44.3227ZM11.7705 19.5315C9.98282 19.3715 8.99874 18.6444 7.87775 17.8186C7.48292 17.5263 7.07024 17.224 6.61788 16.9415L11.1276 8.77243C11.4887 8.11851 12.0879 7.65425 12.8101 7.46064C13.5343 7.26703 14.2862 7.37372 14.9251 7.76291L16.4151 8.66378L11.7724 19.5335L11.7705 19.5315ZM29.0912 17.8186C27.7163 16.8032 26.1568 15.6514 23.1529 15.6514C20.1491 15.6514 18.5916 16.8012 17.2167 17.8186C16.2782 18.5081 15.435 19.1304 14.1374 19.409L20.6491 4.16141C21.1689 2.94642 22.2839 2.51377 23.1549 2.51377C24.0259 2.51377 25.137 2.94642 25.6588 4.16141L32.1704 19.409C30.8709 19.1304 30.0277 18.5081 29.0912 17.8186ZM38.4301 17.8186C37.3111 18.6444 36.325 19.3715 34.5374 19.5315L29.8947 8.6618L31.3848 7.76093C32.0236 7.37174 32.7756 7.26506 33.4998 7.45669C34.2239 7.6503 34.8211 8.11654 35.1822 8.77046L39.692 16.9395C39.2396 17.224 38.8269 17.5243 38.4321 17.8167L38.4301 17.8186Z" fill="#0082B8"/>
</svg>
